<?xml version="1.0" encoding="UTF-8"?>
<svg width="311px" height="73px" viewBox="0 0 311 73" version="1.1" xmlns="http://www.w3.org/2000/svg" xmlns:xlink="http://www.w3.org/1999/xlink">
    <!-- Generator: Sketch 51.1 (57501) - http://www.bohemiancoding.com/sketch -->
    <title>Group 6</title>
    <desc>Created with Sketch.</desc>
    <defs></defs>
    <g id="Page-1" stroke="none" stroke-width="1" fill="none" fill-rule="evenodd">
        <g id="MA-white" transform="translate(-831.000000, -2523.000000)" fill="#222222">
            <g id="Group-6" transform="translate(831.000000, 2523.000000)">
                <g id="Group-5">
                    <rect id="Rectangle-5" x="0" y="0" width="3" height="3" rx="1.5"></rect>
                    <rect id="Rectangle-5-Copy-64" x="159" y="0" width="3" height="3" rx="1.5"></rect>
                    <rect id="Rectangle-5-Copy" x="10" y="0" width="3" height="3" rx="1.5"></rect>
                    <rect id="Rectangle-5-Copy-65" x="169" y="0" width="3" height="3" rx="1.5"></rect>
                    <rect id="Rectangle-5-Copy-3" x="20" y="0" width="3" height="3" rx="1.5"></rect>
                    <rect id="Rectangle-5-Copy-66" x="179" y="0" width="3" height="3" rx="1.5"></rect>
                    <rect id="Rectangle-5-Copy-2" x="30" y="0" width="3" height="3" rx="1.5"></rect>
                    <rect id="Rectangle-5-Copy-67" x="189" y="0" width="3" height="3" rx="1.5"></rect>
                    <rect id="Rectangle-5-Copy-7" x="40" y="0" width="3" height="3" rx="1.5"></rect>
                    <rect id="Rectangle-5-Copy-68" x="199" y="0" width="3" height="3" rx="1.5"></rect>
                    <rect id="Rectangle-5-Copy-6" x="50" y="0" width="3" height="3" rx="1.5"></rect>
                    <rect id="Rectangle-5-Copy-69" x="209" y="0" width="3" height="3" rx="1.5"></rect>
                    <rect id="Rectangle-5-Copy-5" x="60" y="0" width="3" height="3" rx="1.5"></rect>
                    <rect id="Rectangle-5-Copy-70" x="219" y="0" width="3" height="3" rx="1.5"></rect>
                    <rect id="Rectangle-5-Copy-4" x="70" y="0" width="3" height="3" rx="1.5"></rect>
                    <rect id="Rectangle-5-Copy-71" x="229" y="0" width="3" height="3" rx="1.5"></rect>
                    <rect id="Rectangle-5-Copy-15" x="79" y="0" width="3" height="3" rx="1.5"></rect>
                    <rect id="Rectangle-5-Copy-72" x="238" y="0" width="3" height="3" rx="1.5"></rect>
                    <rect id="Rectangle-5-Copy-14" x="89" y="0" width="3" height="3" rx="1.5"></rect>
                    <rect id="Rectangle-5-Copy-73" x="248" y="0" width="3" height="3" rx="1.5"></rect>
                    <rect id="Rectangle-5-Copy-13" x="99" y="0" width="3" height="3" rx="1.5"></rect>
                    <rect id="Rectangle-5-Copy-74" x="258" y="0" width="3" height="3" rx="1.5"></rect>
                    <rect id="Rectangle-5-Copy-12" x="109" y="0" width="3" height="3" rx="1.5"></rect>
                    <rect id="Rectangle-5-Copy-75" x="268" y="0" width="3" height="3" rx="1.5"></rect>
                    <rect id="Rectangle-5-Copy-11" x="119" y="0" width="3" height="3" rx="1.5"></rect>
                    <rect id="Rectangle-5-Copy-76" x="278" y="0" width="3" height="3" rx="1.5"></rect>
                    <rect id="Rectangle-5-Copy-10" x="129" y="0" width="3" height="3" rx="1.5"></rect>
                    <rect id="Rectangle-5-Copy-77" x="288" y="0" width="3" height="3" rx="1.5"></rect>
                    <rect id="Rectangle-5-Copy-9" x="139" y="0" width="3" height="3" rx="1.5"></rect>
                    <rect id="Rectangle-5-Copy-78" x="298" y="0" width="3" height="3" rx="1.5"></rect>
                    <rect id="Rectangle-5-Copy-8" x="149" y="0" width="3" height="3" rx="1.5"></rect>
                    <rect id="Rectangle-5-Copy-79" x="308" y="0" width="3" height="3" rx="1.5"></rect>
                </g>
                <g id="Group-5-Copy" transform="translate(0.000000, 10.000000)">
                    <rect id="Rectangle-5" x="0" y="0" width="3" height="3" rx="1.5"></rect>
                    <rect id="Rectangle-5-Copy-64" x="159" y="0" width="3" height="3" rx="1.5"></rect>
                    <rect id="Rectangle-5-Copy" x="10" y="0" width="3" height="3" rx="1.5"></rect>
                    <rect id="Rectangle-5-Copy-65" x="169" y="0" width="3" height="3" rx="1.5"></rect>
                    <rect id="Rectangle-5-Copy-3" x="20" y="0" width="3" height="3" rx="1.5"></rect>
                    <rect id="Rectangle-5-Copy-66" x="179" y="0" width="3" height="3" rx="1.5"></rect>
                    <rect id="Rectangle-5-Copy-2" x="30" y="0" width="3" height="3" rx="1.5"></rect>
                    <rect id="Rectangle-5-Copy-67" x="189" y="0" width="3" height="3" rx="1.5"></rect>
                    <rect id="Rectangle-5-Copy-7" x="40" y="0" width="3" height="3" rx="1.5"></rect>
                    <rect id="Rectangle-5-Copy-68" x="199" y="0" width="3" height="3" rx="1.5"></rect>
                    <rect id="Rectangle-5-Copy-6" x="50" y="0" width="3" height="3" rx="1.5"></rect>
                    <rect id="Rectangle-5-Copy-69" x="209" y="0" width="3" height="3" rx="1.5"></rect>
                    <rect id="Rectangle-5-Copy-5" x="60" y="0" width="3" height="3" rx="1.5"></rect>
                    <rect id="Rectangle-5-Copy-70" x="219" y="0" width="3" height="3" rx="1.5"></rect>
                    <rect id="Rectangle-5-Copy-4" x="70" y="0" width="3" height="3" rx="1.5"></rect>
                    <rect id="Rectangle-5-Copy-71" x="229" y="0" width="3" height="3" rx="1.5"></rect>
                    <rect id="Rectangle-5-Copy-15" x="79" y="0" width="3" height="3" rx="1.5"></rect>
                    <rect id="Rectangle-5-Copy-72" x="238" y="0" width="3" height="3" rx="1.5"></rect>
                    <rect id="Rectangle-5-Copy-14" x="89" y="0" width="3" height="3" rx="1.5"></rect>
                    <rect id="Rectangle-5-Copy-73" x="248" y="0" width="3" height="3" rx="1.5"></rect>
                    <rect id="Rectangle-5-Copy-13" x="99" y="0" width="3" height="3" rx="1.5"></rect>
                    <rect id="Rectangle-5-Copy-74" x="258" y="0" width="3" height="3" rx="1.5"></rect>
                    <rect id="Rectangle-5-Copy-12" x="109" y="0" width="3" height="3" rx="1.5"></rect>
                    <rect id="Rectangle-5-Copy-75" x="268" y="0" width="3" height="3" rx="1.5"></rect>
                    <rect id="Rectangle-5-Copy-11" x="119" y="0" width="3" height="3" rx="1.5"></rect>
                    <rect id="Rectangle-5-Copy-76" x="278" y="0" width="3" height="3" rx="1.5"></rect>
                    <rect id="Rectangle-5-Copy-10" x="129" y="0" width="3" height="3" rx="1.5"></rect>
                    <rect id="Rectangle-5-Copy-77" x="288" y="0" width="3" height="3" rx="1.5"></rect>
                    <rect id="Rectangle-5-Copy-9" x="139" y="0" width="3" height="3" rx="1.5"></rect>
                    <rect id="Rectangle-5-Copy-78" x="298" y="0" width="3" height="3" rx="1.5"></rect>
                    <rect id="Rectangle-5-Copy-8" x="149" y="0" width="3" height="3" rx="1.5"></rect>
                    <rect id="Rectangle-5-Copy-79" x="308" y="0" width="3" height="3" rx="1.5"></rect>
                </g>
                <g id="Group-5-Copy-2" transform="translate(0.000000, 20.000000)">
                    <rect id="Rectangle-5" x="0" y="0" width="3" height="3" rx="1.5"></rect>
                    <rect id="Rectangle-5-Copy-64" x="159" y="0" width="3" height="3" rx="1.5"></rect>
                    <rect id="Rectangle-5-Copy" x="10" y="0" width="3" height="3" rx="1.5"></rect>
                    <rect id="Rectangle-5-Copy-65" x="169" y="0" width="3" height="3" rx="1.5"></rect>
                    <rect id="Rectangle-5-Copy-3" x="20" y="0" width="3" height="3" rx="1.5"></rect>
                    <rect id="Rectangle-5-Copy-66" x="179" y="0" width="3" height="3" rx="1.5"></rect>
                    <rect id="Rectangle-5-Copy-2" x="30" y="0" width="3" height="3" rx="1.5"></rect>
                    <rect id="Rectangle-5-Copy-67" x="189" y="0" width="3" height="3" rx="1.5"></rect>
                    <rect id="Rectangle-5-Copy-7" x="40" y="0" width="3" height="3" rx="1.5"></rect>
                    <rect id="Rectangle-5-Copy-68" x="199" y="0" width="3" height="3" rx="1.5"></rect>
                    <rect id="Rectangle-5-Copy-6" x="50" y="0" width="3" height="3" rx="1.5"></rect>
                    <rect id="Rectangle-5-Copy-69" x="209" y="0" width="3" height="3" rx="1.5"></rect>
                    <rect id="Rectangle-5-Copy-5" x="60" y="0" width="3" height="3" rx="1.5"></rect>
                    <rect id="Rectangle-5-Copy-70" x="219" y="0" width="3" height="3" rx="1.5"></rect>
                    <rect id="Rectangle-5-Copy-4" x="70" y="0" width="3" height="3" rx="1.5"></rect>
                    <rect id="Rectangle-5-Copy-71" x="229" y="0" width="3" height="3" rx="1.5"></rect>
                    <rect id="Rectangle-5-Copy-15" x="79" y="0" width="3" height="3" rx="1.5"></rect>
                    <rect id="Rectangle-5-Copy-72" x="238" y="0" width="3" height="3" rx="1.5"></rect>
                    <rect id="Rectangle-5-Copy-14" x="89" y="0" width="3" height="3" rx="1.5"></rect>
                    <rect id="Rectangle-5-Copy-73" x="248" y="0" width="3" height="3" rx="1.5"></rect>
                    <rect id="Rectangle-5-Copy-13" x="99" y="0" width="3" height="3" rx="1.5"></rect>
                    <rect id="Rectangle-5-Copy-74" x="258" y="0" width="3" height="3" rx="1.5"></rect>
                    <rect id="Rectangle-5-Copy-12" x="109" y="0" width="3" height="3" rx="1.5"></rect>
                    <rect id="Rectangle-5-Copy-75" x="268" y="0" width="3" height="3" rx="1.5"></rect>
                    <rect id="Rectangle-5-Copy-11" x="119" y="0" width="3" height="3" rx="1.5"></rect>
                    <rect id="Rectangle-5-Copy-76" x="278" y="0" width="3" height="3" rx="1.5"></rect>
                    <rect id="Rectangle-5-Copy-10" x="129" y="0" width="3" height="3" rx="1.5"></rect>
                    <rect id="Rectangle-5-Copy-77" x="288" y="0" width="3" height="3" rx="1.5"></rect>
                    <rect id="Rectangle-5-Copy-9" x="139" y="0" width="3" height="3" rx="1.5"></rect>
                    <rect id="Rectangle-5-Copy-78" x="298" y="0" width="3" height="3" rx="1.5"></rect>
                    <rect id="Rectangle-5-Copy-8" x="149" y="0" width="3" height="3" rx="1.5"></rect>
                    <rect id="Rectangle-5-Copy-79" x="308" y="0" width="3" height="3" rx="1.5"></rect>
                </g>
                <g id="Group-5-Copy-3" transform="translate(0.000000, 30.000000)">
                    <rect id="Rectangle-5" x="0" y="0" width="3" height="3" rx="1.5"></rect>
                    <rect id="Rectangle-5-Copy-64" x="159" y="0" width="3" height="3" rx="1.5"></rect>
                    <rect id="Rectangle-5-Copy" x="10" y="0" width="3" height="3" rx="1.5"></rect>
                    <rect id="Rectangle-5-Copy-65" x="169" y="0" width="3" height="3" rx="1.5"></rect>
                    <rect id="Rectangle-5-Copy-3" x="20" y="0" width="3" height="3" rx="1.5"></rect>
                    <rect id="Rectangle-5-Copy-66" x="179" y="0" width="3" height="3" rx="1.5"></rect>
                    <rect id="Rectangle-5-Copy-2" x="30" y="0" width="3" height="3" rx="1.5"></rect>
                    <rect id="Rectangle-5-Copy-67" x="189" y="0" width="3" height="3" rx="1.5"></rect>
                    <rect id="Rectangle-5-Copy-7" x="40" y="0" width="3" height="3" rx="1.5"></rect>
                    <rect id="Rectangle-5-Copy-68" x="199" y="0" width="3" height="3" rx="1.5"></rect>
                    <rect id="Rectangle-5-Copy-6" x="50" y="0" width="3" height="3" rx="1.5"></rect>
                    <rect id="Rectangle-5-Copy-69" x="209" y="0" width="3" height="3" rx="1.5"></rect>
                    <rect id="Rectangle-5-Copy-5" x="60" y="0" width="3" height="3" rx="1.5"></rect>
                    <rect id="Rectangle-5-Copy-70" x="219" y="0" width="3" height="3" rx="1.5"></rect>
                    <rect id="Rectangle-5-Copy-4" x="70" y="0" width="3" height="3" rx="1.5"></rect>
                    <rect id="Rectangle-5-Copy-71" x="229" y="0" width="3" height="3" rx="1.5"></rect>
                    <rect id="Rectangle-5-Copy-15" x="79" y="0" width="3" height="3" rx="1.5"></rect>
                    <rect id="Rectangle-5-Copy-72" x="238" y="0" width="3" height="3" rx="1.5"></rect>
                    <rect id="Rectangle-5-Copy-14" x="89" y="0" width="3" height="3" rx="1.5"></rect>
                    <rect id="Rectangle-5-Copy-73" x="248" y="0" width="3" height="3" rx="1.5"></rect>
                    <rect id="Rectangle-5-Copy-13" x="99" y="0" width="3" height="3" rx="1.5"></rect>
                    <rect id="Rectangle-5-Copy-74" x="258" y="0" width="3" height="3" rx="1.5"></rect>
                    <rect id="Rectangle-5-Copy-12" x="109" y="0" width="3" height="3" rx="1.5"></rect>
                    <rect id="Rectangle-5-Copy-75" x="268" y="0" width="3" height="3" rx="1.5"></rect>
                    <rect id="Rectangle-5-Copy-11" x="119" y="0" width="3" height="3" rx="1.5"></rect>
                    <rect id="Rectangle-5-Copy-76" x="278" y="0" width="3" height="3" rx="1.5"></rect>
                    <rect id="Rectangle-5-Copy-10" x="129" y="0" width="3" height="3" rx="1.5"></rect>
                    <rect id="Rectangle-5-Copy-77" x="288" y="0" width="3" height="3" rx="1.5"></rect>
                    <rect id="Rectangle-5-Copy-9" x="139" y="0" width="3" height="3" rx="1.5"></rect>
                    <rect id="Rectangle-5-Copy-78" x="298" y="0" width="3" height="3" rx="1.5"></rect>
                    <rect id="Rectangle-5-Copy-8" x="149" y="0" width="3" height="3" rx="1.5"></rect>
                    <rect id="Rectangle-5-Copy-79" x="308" y="0" width="3" height="3" rx="1.5"></rect>
                </g>
                <g id="Group-5-Copy-4" transform="translate(0.000000, 40.000000)">
                    <rect id="Rectangle-5" x="0" y="0" width="3" height="3" rx="1.5"></rect>
                    <rect id="Rectangle-5-Copy-64" x="159" y="0" width="3" height="3" rx="1.5"></rect>
                    <rect id="Rectangle-5-Copy" x="10" y="0" width="3" height="3" rx="1.5"></rect>
                    <rect id="Rectangle-5-Copy-65" x="169" y="0" width="3" height="3" rx="1.5"></rect>
                    <rect id="Rectangle-5-Copy-3" x="20" y="0" width="3" height="3" rx="1.5"></rect>
                    <rect id="Rectangle-5-Copy-66" x="179" y="0" width="3" height="3" rx="1.5"></rect>
                    <rect id="Rectangle-5-Copy-2" x="30" y="0" width="3" height="3" rx="1.5"></rect>
                    <rect id="Rectangle-5-Copy-67" x="189" y="0" width="3" height="3" rx="1.5"></rect>
                    <rect id="Rectangle-5-Copy-7" x="40" y="0" width="3" height="3" rx="1.5"></rect>
                    <rect id="Rectangle-5-Copy-68" x="199" y="0" width="3" height="3" rx="1.5"></rect>
                    <rect id="Rectangle-5-Copy-6" x="50" y="0" width="3" height="3" rx="1.5"></rect>
                    <rect id="Rectangle-5-Copy-69" x="209" y="0" width="3" height="3" rx="1.5"></rect>
                    <rect id="Rectangle-5-Copy-5" x="60" y="0" width="3" height="3" rx="1.5"></rect>
                    <rect id="Rectangle-5-Copy-70" x="219" y="0" width="3" height="3" rx="1.5"></rect>
                    <rect id="Rectangle-5-Copy-4" x="70" y="0" width="3" height="3" rx="1.5"></rect>
                    <rect id="Rectangle-5-Copy-71" x="229" y="0" width="3" height="3" rx="1.5"></rect>
                    <rect id="Rectangle-5-Copy-15" x="79" y="0" width="3" height="3" rx="1.5"></rect>
                    <rect id="Rectangle-5-Copy-72" x="238" y="0" width="3" height="3" rx="1.5"></rect>
                    <rect id="Rectangle-5-Copy-14" x="89" y="0" width="3" height="3" rx="1.5"></rect>
                    <rect id="Rectangle-5-Copy-73" x="248" y="0" width="3" height="3" rx="1.5"></rect>
                    <rect id="Rectangle-5-Copy-13" x="99" y="0" width="3" height="3" rx="1.5"></rect>
                    <rect id="Rectangle-5-Copy-74" x="258" y="0" width="3" height="3" rx="1.5"></rect>
                    <rect id="Rectangle-5-Copy-12" x="109" y="0" width="3" height="3" rx="1.5"></rect>
                    <rect id="Rectangle-5-Copy-75" x="268" y="0" width="3" height="3" rx="1.5"></rect>
                    <rect id="Rectangle-5-Copy-11" x="119" y="0" width="3" height="3" rx="1.5"></rect>
                    <rect id="Rectangle-5-Copy-76" x="278" y="0" width="3" height="3" rx="1.5"></rect>
                    <rect id="Rectangle-5-Copy-10" x="129" y="0" width="3" height="3" rx="1.5"></rect>
                    <rect id="Rectangle-5-Copy-77" x="288" y="0" width="3" height="3" rx="1.5"></rect>
                    <rect id="Rectangle-5-Copy-9" x="139" y="0" width="3" height="3" rx="1.5"></rect>
                    <rect id="Rectangle-5-Copy-78" x="298" y="0" width="3" height="3" rx="1.5"></rect>
                    <rect id="Rectangle-5-Copy-8" x="149" y="0" width="3" height="3" rx="1.5"></rect>
                    <rect id="Rectangle-5-Copy-79" x="308" y="0" width="3" height="3" rx="1.5"></rect>
                </g>
                <g id="Group-5-Copy-5" transform="translate(0.000000, 50.000000)">
                    <rect id="Rectangle-5" x="0" y="0" width="3" height="3" rx="1.5"></rect>
                    <rect id="Rectangle-5-Copy-64" x="159" y="0" width="3" height="3" rx="1.5"></rect>
                    <rect id="Rectangle-5-Copy" x="10" y="0" width="3" height="3" rx="1.5"></rect>
                    <rect id="Rectangle-5-Copy-65" x="169" y="0" width="3" height="3" rx="1.5"></rect>
                    <rect id="Rectangle-5-Copy-3" x="20" y="0" width="3" height="3" rx="1.5"></rect>
                    <rect id="Rectangle-5-Copy-66" x="179" y="0" width="3" height="3" rx="1.5"></rect>
                    <rect id="Rectangle-5-Copy-2" x="30" y="0" width="3" height="3" rx="1.5"></rect>
                    <rect id="Rectangle-5-Copy-67" x="189" y="0" width="3" height="3" rx="1.5"></rect>
                    <rect id="Rectangle-5-Copy-7" x="40" y="0" width="3" height="3" rx="1.5"></rect>
                    <rect id="Rectangle-5-Copy-68" x="199" y="0" width="3" height="3" rx="1.5"></rect>
                    <rect id="Rectangle-5-Copy-6" x="50" y="0" width="3" height="3" rx="1.5"></rect>
                    <rect id="Rectangle-5-Copy-69" x="209" y="0" width="3" height="3" rx="1.5"></rect>
                    <rect id="Rectangle-5-Copy-5" x="60" y="0" width="3" height="3" rx="1.5"></rect>
                    <rect id="Rectangle-5-Copy-70" x="219" y="0" width="3" height="3" rx="1.5"></rect>
                    <rect id="Rectangle-5-Copy-4" x="70" y="0" width="3" height="3" rx="1.5"></rect>
                    <rect id="Rectangle-5-Copy-71" x="229" y="0" width="3" height="3" rx="1.5"></rect>
                    <rect id="Rectangle-5-Copy-15" x="79" y="0" width="3" height="3" rx="1.5"></rect>
                    <rect id="Rectangle-5-Copy-72" x="238" y="0" width="3" height="3" rx="1.5"></rect>
                    <rect id="Rectangle-5-Copy-14" x="89" y="0" width="3" height="3" rx="1.5"></rect>
                    <rect id="Rectangle-5-Copy-73" x="248" y="0" width="3" height="3" rx="1.5"></rect>
                    <rect id="Rectangle-5-Copy-13" x="99" y="0" width="3" height="3" rx="1.5"></rect>
                    <rect id="Rectangle-5-Copy-74" x="258" y="0" width="3" height="3" rx="1.5"></rect>
                    <rect id="Rectangle-5-Copy-12" x="109" y="0" width="3" height="3" rx="1.5"></rect>
                    <rect id="Rectangle-5-Copy-75" x="268" y="0" width="3" height="3" rx="1.5"></rect>
                    <rect id="Rectangle-5-Copy-11" x="119" y="0" width="3" height="3" rx="1.5"></rect>
                    <rect id="Rectangle-5-Copy-76" x="278" y="0" width="3" height="3" rx="1.5"></rect>
                    <rect id="Rectangle-5-Copy-10" x="129" y="0" width="3" height="3" rx="1.5"></rect>
                    <rect id="Rectangle-5-Copy-77" x="288" y="0" width="3" height="3" rx="1.5"></rect>
                    <rect id="Rectangle-5-Copy-9" x="139" y="0" width="3" height="3" rx="1.5"></rect>
                    <rect id="Rectangle-5-Copy-78" x="298" y="0" width="3" height="3" rx="1.5"></rect>
                    <rect id="Rectangle-5-Copy-8" x="149" y="0" width="3" height="3" rx="1.5"></rect>
                    <rect id="Rectangle-5-Copy-79" x="308" y="0" width="3" height="3" rx="1.5"></rect>
                </g>
                <g id="Group-5-Copy-6" transform="translate(0.000000, 60.000000)">
                    <rect id="Rectangle-5" x="0" y="0" width="3" height="3" rx="1.5"></rect>
                    <rect id="Rectangle-5-Copy-64" x="159" y="0" width="3" height="3" rx="1.5"></rect>
                    <rect id="Rectangle-5-Copy" x="10" y="0" width="3" height="3" rx="1.5"></rect>
                    <rect id="Rectangle-5-Copy-65" x="169" y="0" width="3" height="3" rx="1.5"></rect>
                    <rect id="Rectangle-5-Copy-3" x="20" y="0" width="3" height="3" rx="1.5"></rect>
                    <rect id="Rectangle-5-Copy-66" x="179" y="0" width="3" height="3" rx="1.5"></rect>
                    <rect id="Rectangle-5-Copy-2" x="30" y="0" width="3" height="3" rx="1.5"></rect>
                    <rect id="Rectangle-5-Copy-67" x="189" y="0" width="3" height="3" rx="1.5"></rect>
                    <rect id="Rectangle-5-Copy-7" x="40" y="0" width="3" height="3" rx="1.5"></rect>
                    <rect id="Rectangle-5-Copy-68" x="199" y="0" width="3" height="3" rx="1.5"></rect>
                    <rect id="Rectangle-5-Copy-6" x="50" y="0" width="3" height="3" rx="1.5"></rect>
                    <rect id="Rectangle-5-Copy-69" x="209" y="0" width="3" height="3" rx="1.5"></rect>
                    <rect id="Rectangle-5-Copy-5" x="60" y="0" width="3" height="3" rx="1.5"></rect>
                    <rect id="Rectangle-5-Copy-70" x="219" y="0" width="3" height="3" rx="1.5"></rect>
                    <rect id="Rectangle-5-Copy-4" x="70" y="0" width="3" height="3" rx="1.5"></rect>
                    <rect id="Rectangle-5-Copy-71" x="229" y="0" width="3" height="3" rx="1.5"></rect>
                    <rect id="Rectangle-5-Copy-15" x="79" y="0" width="3" height="3" rx="1.5"></rect>
                    <rect id="Rectangle-5-Copy-72" x="238" y="0" width="3" height="3" rx="1.5"></rect>
                    <rect id="Rectangle-5-Copy-14" x="89" y="0" width="3" height="3" rx="1.5"></rect>
                    <rect id="Rectangle-5-Copy-73" x="248" y="0" width="3" height="3" rx="1.5"></rect>
                    <rect id="Rectangle-5-Copy-13" x="99" y="0" width="3" height="3" rx="1.5"></rect>
                    <rect id="Rectangle-5-Copy-74" x="258" y="0" width="3" height="3" rx="1.5"></rect>
                    <rect id="Rectangle-5-Copy-12" x="109" y="0" width="3" height="3" rx="1.5"></rect>
                    <rect id="Rectangle-5-Copy-75" x="268" y="0" width="3" height="3" rx="1.5"></rect>
                    <rect id="Rectangle-5-Copy-11" x="119" y="0" width="3" height="3" rx="1.5"></rect>
                    <rect id="Rectangle-5-Copy-76" x="278" y="0" width="3" height="3" rx="1.5"></rect>
                    <rect id="Rectangle-5-Copy-10" x="129" y="0" width="3" height="3" rx="1.5"></rect>
                    <rect id="Rectangle-5-Copy-77" x="288" y="0" width="3" height="3" rx="1.5"></rect>
                    <rect id="Rectangle-5-Copy-9" x="139" y="0" width="3" height="3" rx="1.5"></rect>
                    <rect id="Rectangle-5-Copy-78" x="298" y="0" width="3" height="3" rx="1.5"></rect>
                    <rect id="Rectangle-5-Copy-8" x="149" y="0" width="3" height="3" rx="1.5"></rect>
                    <rect id="Rectangle-5-Copy-79" x="308" y="0" width="3" height="3" rx="1.5"></rect>
                </g>
                <g id="Group-5-Copy-7" transform="translate(0.000000, 70.000000)">
                    <rect id="Rectangle-5" x="0" y="0" width="3" height="3" rx="1.5"></rect>
                    <rect id="Rectangle-5-Copy-64" x="159" y="0" width="3" height="3" rx="1.5"></rect>
                    <rect id="Rectangle-5-Copy" x="10" y="0" width="3" height="3" rx="1.5"></rect>
                    <rect id="Rectangle-5-Copy-65" x="169" y="0" width="3" height="3" rx="1.5"></rect>
                    <rect id="Rectangle-5-Copy-3" x="20" y="0" width="3" height="3" rx="1.5"></rect>
                    <rect id="Rectangle-5-Copy-66" x="179" y="0" width="3" height="3" rx="1.5"></rect>
                    <rect id="Rectangle-5-Copy-2" x="30" y="0" width="3" height="3" rx="1.5"></rect>
                    <rect id="Rectangle-5-Copy-67" x="189" y="0" width="3" height="3" rx="1.5"></rect>
                    <rect id="Rectangle-5-Copy-7" x="40" y="0" width="3" height="3" rx="1.5"></rect>
                    <rect id="Rectangle-5-Copy-68" x="199" y="0" width="3" height="3" rx="1.5"></rect>
                    <rect id="Rectangle-5-Copy-6" x="50" y="0" width="3" height="3" rx="1.5"></rect>
                    <rect id="Rectangle-5-Copy-69" x="209" y="0" width="3" height="3" rx="1.5"></rect>
                    <rect id="Rectangle-5-Copy-5" x="60" y="0" width="3" height="3" rx="1.5"></rect>
                    <rect id="Rectangle-5-Copy-70" x="219" y="0" width="3" height="3" rx="1.5"></rect>
                    <rect id="Rectangle-5-Copy-4" x="70" y="0" width="3" height="3" rx="1.5"></rect>
                    <rect id="Rectangle-5-Copy-71" x="229" y="0" width="3" height="3" rx="1.5"></rect>
                    <rect id="Rectangle-5-Copy-15" x="79" y="0" width="3" height="3" rx="1.5"></rect>
                    <rect id="Rectangle-5-Copy-72" x="238" y="0" width="3" height="3" rx="1.5"></rect>
                    <rect id="Rectangle-5-Copy-14" x="89" y="0" width="3" height="3" rx="1.5"></rect>
                    <rect id="Rectangle-5-Copy-73" x="248" y="0" width="3" height="3" rx="1.5"></rect>
                    <rect id="Rectangle-5-Copy-13" x="99" y="0" width="3" height="3" rx="1.5"></rect>
                    <rect id="Rectangle-5-Copy-74" x="258" y="0" width="3" height="3" rx="1.5"></rect>
                    <rect id="Rectangle-5-Copy-12" x="109" y="0" width="3" height="3" rx="1.5"></rect>
                    <rect id="Rectangle-5-Copy-75" x="268" y="0" width="3" height="3" rx="1.5"></rect>
                    <rect id="Rectangle-5-Copy-11" x="119" y="0" width="3" height="3" rx="1.5"></rect>
                    <rect id="Rectangle-5-Copy-76" x="278" y="0" width="3" height="3" rx="1.5"></rect>
                    <rect id="Rectangle-5-Copy-10" x="129" y="0" width="3" height="3" rx="1.5"></rect>
                    <rect id="Rectangle-5-Copy-77" x="288" y="0" width="3" height="3" rx="1.5"></rect>
                    <rect id="Rectangle-5-Copy-9" x="139" y="0" width="3" height="3" rx="1.5"></rect>
                    <rect id="Rectangle-5-Copy-78" x="298" y="0" width="3" height="3" rx="1.5"></rect>
                    <rect id="Rectangle-5-Copy-8" x="149" y="0" width="3" height="3" rx="1.5"></rect>
                    <rect id="Rectangle-5-Copy-79" x="308" y="0" width="3" height="3" rx="1.5"></rect>
                </g>
            </g>
        </g>
    </g>
</svg>