<?xml version="1.0" encoding="UTF-8"?>
<svg width="95px" height="53px" viewBox="0 0 95 53" version="1.1" xmlns="http://www.w3.org/2000/svg" xmlns:xlink="http://www.w3.org/1999/xlink">
    <!-- Generator: Sketch 51.1 (57501) - http://www.bohemiancoding.com/sketch -->
    <title>Group 3</title>
    <desc>Created with Sketch.</desc>
    <defs></defs>
    <g id="Page-1" stroke="none" stroke-width="1" fill="none" fill-rule="evenodd">
        <g id="MA-white" transform="translate(-323.000000, -717.000000)" fill="#FFFFFF">
            <g id="Group-3" transform="translate(323.000000, 717.000000)">
                <g id="Group-6-Copy">
                    <g id="Group-5">
                        <rect id="Rectangle-5-Copy-70" x="0" y="0" width="3" height="3"></rect>
                        <rect id="Rectangle-5-Copy-71" x="10" y="0" width="3" height="3"></rect>
                        <rect id="Rectangle-5-Copy-72" x="20" y="0" width="3" height="3"></rect>
                        <rect id="Rectangle-5-Copy-73" x="31" y="0" width="3" height="3"></rect>
                        <rect id="Rectangle-5-Copy-74" x="41" y="0" width="3" height="3"></rect>
                        <rect id="Rectangle-5-Copy-75" x="51" y="0" width="3" height="3"></rect>
                        <rect id="Rectangle-5-Copy-76" x="61" y="0" width="3" height="3"></rect>
                        <rect id="Rectangle-5-Copy-77" x="72" y="0" width="3" height="3"></rect>
                        <rect id="Rectangle-5-Copy-78" x="82" y="0" width="3" height="3"></rect>
                        <rect id="Rectangle-5-Copy-79" x="92" y="0" width="3" height="3"></rect>
                    </g>
                </g>
                <g id="Group-6-Copy-2" transform="translate(0.000000, 10.000000)">
                    <g id="Group-5">
                        <rect id="Rectangle-5-Copy-70" x="0" y="0" width="3" height="3"></rect>
                        <rect id="Rectangle-5-Copy-71" x="10" y="0" width="3" height="3"></rect>
                        <rect id="Rectangle-5-Copy-72" x="20" y="0" width="3" height="3"></rect>
                        <rect id="Rectangle-5-Copy-73" x="31" y="0" width="3" height="3"></rect>
                        <rect id="Rectangle-5-Copy-74" x="41" y="0" width="3" height="3"></rect>
                        <rect id="Rectangle-5-Copy-75" x="51" y="0" width="3" height="3"></rect>
                        <rect id="Rectangle-5-Copy-76" x="61" y="0" width="3" height="3"></rect>
                        <rect id="Rectangle-5-Copy-77" x="72" y="0" width="3" height="3"></rect>
                        <rect id="Rectangle-5-Copy-78" x="82" y="0" width="3" height="3"></rect>
                        <rect id="Rectangle-5-Copy-79" x="92" y="0" width="3" height="3"></rect>
                    </g>
                </g>
                <g id="Group-6-Copy-3" transform="translate(0.000000, 20.000000)">
                    <g id="Group-5">
                        <rect id="Rectangle-5-Copy-70" x="0" y="0" width="3" height="3"></rect>
                        <rect id="Rectangle-5-Copy-71" x="10" y="0" width="3" height="3"></rect>
                        <rect id="Rectangle-5-Copy-72" x="20" y="0" width="3" height="3"></rect>
                        <rect id="Rectangle-5-Copy-73" x="31" y="0" width="3" height="3"></rect>
                        <rect id="Rectangle-5-Copy-74" x="41" y="0" width="3" height="3"></rect>
                        <rect id="Rectangle-5-Copy-75" x="51" y="0" width="3" height="3"></rect>
                        <rect id="Rectangle-5-Copy-76" x="61" y="0" width="3" height="3"></rect>
                        <rect id="Rectangle-5-Copy-77" x="72" y="0" width="3" height="3"></rect>
                        <rect id="Rectangle-5-Copy-78" x="82" y="0" width="3" height="3"></rect>
                        <rect id="Rectangle-5-Copy-79" x="92" y="0" width="3" height="3"></rect>
                    </g>
                </g>
                <g id="Group-6-Copy-4" transform="translate(0.000000, 30.000000)">
                    <g id="Group-5">
                        <rect id="Rectangle-5-Copy-70" x="0" y="0" width="3" height="3"></rect>
                        <rect id="Rectangle-5-Copy-71" x="10" y="0" width="3" height="3"></rect>
                        <rect id="Rectangle-5-Copy-72" x="20" y="0" width="3" height="3"></rect>
                        <rect id="Rectangle-5-Copy-73" x="31" y="0" width="3" height="3"></rect>
                        <rect id="Rectangle-5-Copy-74" x="41" y="0" width="3" height="3"></rect>
                        <rect id="Rectangle-5-Copy-75" x="51" y="0" width="3" height="3"></rect>
                        <rect id="Rectangle-5-Copy-76" x="61" y="0" width="3" height="3"></rect>
                        <rect id="Rectangle-5-Copy-77" x="72" y="0" width="3" height="3"></rect>
                        <rect id="Rectangle-5-Copy-78" x="82" y="0" width="3" height="3"></rect>
                        <rect id="Rectangle-5-Copy-79" x="92" y="0" width="3" height="3"></rect>
                    </g>
                </g>
                <g id="Group-6-Copy-5" transform="translate(0.000000, 40.000000)">
                    <g id="Group-5">
                        <rect id="Rectangle-5-Copy-70" x="0" y="0" width="3" height="3"></rect>
                        <rect id="Rectangle-5-Copy-71" x="10" y="0" width="3" height="3"></rect>
                        <rect id="Rectangle-5-Copy-72" x="20" y="0" width="3" height="3"></rect>
                        <rect id="Rectangle-5-Copy-73" x="31" y="0" width="3" height="3"></rect>
                        <rect id="Rectangle-5-Copy-74" x="41" y="0" width="3" height="3"></rect>
                        <rect id="Rectangle-5-Copy-75" x="51" y="0" width="3" height="3"></rect>
                        <rect id="Rectangle-5-Copy-76" x="61" y="0" width="3" height="3"></rect>
                        <rect id="Rectangle-5-Copy-77" x="72" y="0" width="3" height="3"></rect>
                        <rect id="Rectangle-5-Copy-78" x="82" y="0" width="3" height="3"></rect>
                        <rect id="Rectangle-5-Copy-79" x="92" y="0" width="3" height="3"></rect>
                    </g>
                </g>
                <g id="Group-6-Copy-6" transform="translate(0.000000, 50.000000)">
                    <g id="Group-5">
                        <rect id="Rectangle-5-Copy-70" x="0" y="0" width="3" height="3"></rect>
                        <rect id="Rectangle-5-Copy-71" x="10" y="0" width="3" height="3"></rect>
                        <rect id="Rectangle-5-Copy-72" x="20" y="0" width="3" height="3"></rect>
                        <rect id="Rectangle-5-Copy-73" x="31" y="0" width="3" height="3"></rect>
                        <rect id="Rectangle-5-Copy-74" x="41" y="0" width="3" height="3"></rect>
                        <rect id="Rectangle-5-Copy-75" x="51" y="0" width="3" height="3"></rect>
                        <rect id="Rectangle-5-Copy-76" x="61" y="0" width="3" height="3"></rect>
                        <rect id="Rectangle-5-Copy-77" x="72" y="0" width="3" height="3"></rect>
                        <rect id="Rectangle-5-Copy-78" x="82" y="0" width="3" height="3"></rect>
                        <rect id="Rectangle-5-Copy-79" x="92" y="0" width="3" height="3"></rect>
                    </g>
                </g>
            </g>
        </g>
    </g>
</svg>